<?xml version="1.0" ?><svg viewBox="0 0 440.44 389.54" xmlns="http://www.w3.org/2000/svg"><title/><g data-name="Layer 2" id="Layer_2"><g data-name="hotdog, bread, hot, meat, dog, food, meal, fast, restaurant, junk, fastfood" id="hotdog_bread_hot_meat_dog_food_meal_fast_restaurant_junk_fastfood"><path d="M167.77,28.51a43.61,43.61,0,0,0-39.3-17.73,5.39,5.39,0,0,0,1,10.73A32.79,32.79,0,0,1,159,34.83c22.52,31.05,59.28,65.25,100.88,93.82s86.71,50.62,123.76,60.5a32.34,32.34,0,0,1,21.93,19.51,5.39,5.39,0,0,0,5,3.4,5.31,5.31,0,0,0,2-.38,5.38,5.38,0,0,0,3-7,43.6,43.6,0,0,0-29.17-26c-35.91-9.57-79.81-31.06-120.44-59S189.59,58.6,167.77,28.51Z"/><path d="M419,283.33a5.39,5.39,0,0,0-5.07,5.69,38.51,38.51,0,0,1-47.51,39.64c-3.72-.91-7.53-1.89-11.35-2.9a63.37,63.37,0,0,0-2.6-14.6,67,67,0,0,0-39.57-42.83c-42.27-16.94-79.17-36.16-109.67-57.12s-61.69-48.5-92.67-81.88a68.81,68.81,0,0,0-16.42-13,5.39,5.39,0,0,0-5.31,9.38,57.66,57.66,0,0,1,13.83,11c31.52,34,63.3,62,94.46,83.43s68.77,41,111.77,58.24a56.25,56.25,0,0,1,33.26,35.94,50,50,0,0,1-6.33,43c-11.94,17.37-34.46,25.27-56.06,19.67-70.3-18.26-141.78-69.05-142.5-69.56l-.17-.12c-.73-.48-73.79-49-116.06-108-13-18.14-13.68-42-1.75-59.38A49,49,0,0,1,41.75,122l.69-.27a5.38,5.38,0,0,0,.23-10c-2.58-3.55-5.15-7.14-7.65-10.75A38.51,38.51,0,0,1,61.71,41a5.39,5.39,0,1,0-1.39-10.69,49.27,49.27,0,0,0-34.15,76.9c1.78,2.57,3.61,5.14,5.44,7.7a59.55,59.55,0,0,0-21.23,18.89c-14.5,21.11-13.75,49.94,1.87,71.77,43.1,60.23,114.67,108,118.8,110.72s74.29,52.54,146,71.16a65.67,65.67,0,0,0,16.59,2.13c20.36,0,39.65-9.51,51.06-26.13a59.56,59.56,0,0,0,10-26.6c3.07.81,6.14,1.59,9.14,2.32a49.27,49.27,0,0,0,11.76,1.43,49.36,49.36,0,0,0,48.12-39.4,49.29,49.29,0,0,0,.94-12.75A5.41,5.41,0,0,0,419,283.33Z"/><path d="M58.75,112.79a5.39,5.39,0,0,0,5.12,5.65c1.29.06,2.6.17,3.9.33.22,0,.43,0,.65,0a5.39,5.39,0,0,0,.64-10.74c-1.55-.19-3.12-.32-4.67-.4A5.4,5.4,0,0,0,58.75,112.79Z"/><path d="M182.7,243.49l-1.95-1.34a5.39,5.39,0,0,0-6.1,8.88l1.95,1.34a5.39,5.39,0,1,0,6.1-8.88Z"/><path d="M129.36,255.06a5.39,5.39,0,0,0,1.39,7.5l1.95,1.34a5.39,5.39,0,0,0,6.1-8.89l-2-1.34A5.39,5.39,0,0,0,129.36,255.06Z"/><path d="M134.25,207.16l-1.95-1.34a5.39,5.39,0,0,0-6.1,8.89l2,1.34a5.39,5.39,0,0,0,6.1-8.89Z"/><path d="M85,212.77a5.39,5.39,0,0,0,1.39,7.49l2,1.34a5.33,5.33,0,0,0,3,1,5.39,5.39,0,0,0,3.06-9.83l-2-1.34A5.4,5.4,0,0,0,85,212.77Z"/><path d="M89.45,167.6l-2-1.33a5.39,5.39,0,1,0-6.1,8.88l1.95,1.34a5.39,5.39,0,0,0,6.1-8.89Z"/><path d="M178.26,288.65a5.39,5.39,0,0,0,1.39,7.5l1.95,1.34a5.4,5.4,0,0,0,7.49-1.39,5.4,5.4,0,0,0-1.39-7.5l-1.95-1.34A5.39,5.39,0,0,0,178.26,288.65Z"/><path d="M234,275.68l-1.95-1.34a5.39,5.39,0,1,0-6.11,8.89l1.95,1.33a5.39,5.39,0,0,0,7.5-1.39A5.39,5.39,0,0,0,234,275.68Z"/><path d="M233.65,314.88a5.37,5.37,0,0,0,1.39,7.49l2,1.34a5.39,5.39,0,1,0,6.1-8.88l-2-1.34A5.38,5.38,0,0,0,233.65,314.88Z"/><path d="M280.89,312.19a5.39,5.39,0,0,0,6.1-8.88L285,302a5.39,5.39,0,1,0-6.1,8.88Z"/><path d="M423.77,226c-15.25-.16-23.42,6.1-28.84,10.25-3.95,3-4.65,3.57-11.09,2.1-1.72-1.25-5.94-6.15-7.37-7.82-6.55-7.61-14.7-17.09-26.89-21.45-9.86-3.51-20.1-1.57-29.16.15-5.36,1-12.66,2.41-15.44,1.29-.33-.27-1.46-1.38-3.88-5.39a5.39,5.39,0,0,0-9.23,5.58c3.35,5.54,5.79,8.3,8.4,9.51,5.81,2.72,14.12,1.14,22.18-.4,8.44-1.6,16.41-3.12,23.51-.58,9.5,3.39,16.62,11.67,22.34,18.32,6,7,9.26,10.3,12.37,11.12l.15,0c11.37,2.65,15.09.37,20.67-3.91,4.75-3.64,10.69-8.2,22.15-8a6.1,6.1,0,0,1-.08,12.19h-.08c-7.24-.06-10.49,2.39-14.57,5.51-7.55,5.79-14.61,9.9-30.87,6.11-7.53-1.76-13.09-8.23-19-15.08-5.29-6.14-10.75-12.49-17.2-14.79-3.7-1.32-9.19-.43-17.15,1.08-9.49,1.81-20.25,3.86-29.62-.54-7.73-3.63-12.36-11.83-16.83-19.75-3.75-6.63-7.62-13.49-12.74-16.46-3.73-2.15-9.54-2.24-18-2.12-9.84.12-20,.27-28.1-5.3s-11.62-15.11-15-24.33c-2.92-7.93-5.08-13.33-8.44-16-4.61-3.7-12.4-4.86-19.93-6-9-1.33-18.31-2.71-24.47-8.63-7.47-7.16-9.42-17.94-11.14-27.45-1.44-8-2.58-13.41-5.14-16.39-4.46-5.2-12.34-8-20-10.75-8.51-3-16.54-5.91-20.89-12.31C85,51.91,86.33,43.84,89,34.73c1.46-4.93,2.61-8.83-.09-15.59a6.1,6.1,0,1,1,11.33-4.51c4.25,10.67,2.15,17.81.45,23.55-2,6.74-2.79,11,3.77,20.7a5.39,5.39,0,0,0,8.92-6.05c-4-5.93-3.8-6.68-2.35-11.6,1.94-6.56,4.86-16.46-.78-30.6A16.88,16.88,0,0,0,78.92,23.14c1.31,3.29,1,4.19-.24,8.54-3.13,10.61-5.19,22.45,6.79,40.1,6.32,9.31,16.87,13.08,26.21,16.42,5.95,2.13,12.69,4.54,15.34,7.54,1,1.62,2.19,8.18,2.77,11.36,1.81,10,4.29,23.72,14.28,33.31,8.65,8.3,20.69,10.08,30.36,11.52,5.24.77,12.42,1.84,14.71,3.68,1.41,1.32,3.83,7.88,5.13,11.41,3.61,9.79,8.11,22,19,29.49s23.91,7.33,34.37,7.18c3.75-.05,10.74-.14,12.44.68,2.57,1.5,6.14,7.82,8.75,12.43,4.81,8.52,10.79,19.11,21.64,24.21,12.53,5.88,26.22,3.27,36.22,1.37,3.17-.6,9.72-1.84,11.59-1.48,3.75,1.39,8.43,6.83,12.57,11.63,6.44,7.5,13.75,16,24.7,18.55a60.6,60.6,0,0,0,13.75,1.73c12.08,0,19.54-4.73,26.12-9.78,3.48-2.66,4.3-3.29,7.54-3.29h.56a16.88,16.88,0,0,0,.21-33.75Z"/><path d="M269.66,177.12a5.39,5.39,0,0,0,2,7.37,28.36,28.36,0,0,1,4.82,3.54,5.39,5.39,0,0,0,7.24-8,38.45,38.45,0,0,0-6.66-4.89A5.38,5.38,0,0,0,269.66,177.12Z"/><path d="M125,68.61c6.66,2.56,14.2,6,19.53,12.23,4.92,5.72,6.36,13.7,7.89,22.16,1.46,8.06,3,16.4,7.59,20.83,3.11,3,9.08,4.08,17.82,5.37,9.15,1.36,18.61,2.76,25.8,8.56,6.22,5,9.14,12.93,12.23,21.31,2.86,7.78,5.57,15.13,10.48,18.5,4,2.77,10,3.2,16.63,3.2,1.45,0,2.92,0,4.41-.05l1.74,0a5.39,5.39,0,0,0-.06-10.78H249l-1.77,0c-5.06.07-12.7.17-14.78-1.26s-4.73-8.6-6.48-13.36c-3.3-8.93-7-19.06-15.56-26-9.48-7.64-21.41-9.41-31-10.83-3.35-.5-10.26-1.52-12-2.58-2-2.16-3.36-9.49-4.34-14.89-1.64-9-3.5-19.32-10.32-27.25s-16.39-12.4-23.84-15.27A5.39,5.39,0,1,0,125,68.61Z"/></g></g></svg>