<?xml version="1.0" ?><svg viewBox="0 0 64 64" xmlns="http://www.w3.org/2000/svg"><title/><g data-name="Outline putus" id="Outline_putus"><path d="M55,37a3.0033,3.0033,0,0,0-3-3H15V27h1v.5a2.5,2.5,0,0,0,5,0V27h1.1709a3.001,3.001,0,0,0,5.6582,0H29v.5a2.5,2.5,0,0,0,5,0V27h3.1709a3.001,3.001,0,0,0,5.6582,0h2.3418A3.0062,3.0062,0,0,0,48,29h1v2a1,1,0,0,0,2,0V23a3.0033,3.0033,0,0,0-3-3H44.2478l1.8674-1.8672A3.0162,3.0162,0,0,0,41.85,13.8672l-.0058.0058-.0059-.0058A3.0183,3.0183,0,0,0,36.92,14.84a3.01,3.01,0,0,0-4.9142-.9728L32,13.873l-.0059-.0058a3.0133,3.0133,0,0,0-4.9213.9866,3.0135,3.0135,0,0,0-4.9214-.9866l-.0059.0058-.0059-.0058a3.0161,3.0161,0,0,0-4.2646,4.2661L19.7417,20H16a3.0033,3.0033,0,0,0-3,3V34H12a3.0033,3.0033,0,0,0-3,3v7a1,1,0,0,0,1,1h3a3.0033,3.0033,0,0,0,3-3V40h1v1a3.0033,3.0033,0,0,0,3,3h1a3.0033,3.0033,0,0,0,3-3V40h1v3a3.0033,3.0033,0,0,0,3,3h1a3.0033,3.0033,0,0,0,3-3V40h1a3,3,0,0,0,6,0h1a3.0033,3.0033,0,0,0,3,3h1a3.0033,3.0033,0,0,0,3-3h1v3a3.0033,3.0033,0,0,0,3,3h2v6a1.0009,1.0009,0,0,1-1,1H12a1.0009,1.0009,0,0,1-1-1V48a1,1,0,0,0-2,0v4a3.0033,3.0033,0,0,0,3,3H52a3.0033,3.0033,0,0,0,3-3V46a.9729.9729,0,0,0-.1531-.5A.9729.9729,0,0,0,55,45ZM38.9873,15.2813a1.0172,1.0172,0,0,1,1.4365,0l.7129.7128a1,1,0,0,0,1.4141,0l.7129-.7128a1.0163,1.0163,0,0,1,1.4375,1.437l-2.8574,2.8569-2.8565-2.8569a1.0157,1.0157,0,0,1,0-1.437ZM36.92,17.16a3.011,3.011,0,0,0,.6532.9734L39.44,20H34.4041l1.8674-1.8672A2.9971,2.9971,0,0,0,36.92,17.16Zm-7.7774-1.8782a1.018,1.018,0,0,1,1.4375,0l.7129.7128a.9994.9994,0,0,0,1.414,0l.7129-.7128a1.0163,1.0163,0,0,1,1.4375,1.437L32,19.5757l-2.8574-2.8569A1.0186,1.0186,0,0,1,29.1426,15.2817Zm-9.8535,0a1.0172,1.0172,0,0,1,1.4365,0l.7129.7128a.9994.9994,0,0,0,1.414,0l.7129-.7128a1.0163,1.0163,0,0,1,1.4375,1.437l-2.8574,2.8569-2.8564-2.8564A1.0191,1.0191,0,0,1,19.2891,15.2813Zm7.1279,2.8515a3,3,0,0,0,.6557-.9865,3.0021,3.0021,0,0,0,.6558.987L29.5957,20H24.55ZM16,22H48a1.0009,1.0009,0,0,1,1,1v4H48a1.0009,1.0009,0,0,1-1-1,1,1,0,0,0-1-1H42a1,1,0,0,0-1,1,1,1,0,0,1-2,0,1,1,0,0,0-1-1H33a1,1,0,0,0-1,1v1.5a.5.5,0,0,1-1,0V26a1,1,0,0,0-1-1H27a1,1,0,0,0-1,1,1,1,0,0,1-2,0,1,1,0,0,0-1-1H20a1,1,0,0,0-1,1v1.5a.5.5,0,0,1-1,0V26a1,1,0,0,0-1-1H15V23A1.0009,1.0009,0,0,1,16,22ZM51,44a1.0009,1.0009,0,0,1-1-1V39a1,1,0,0,0-1-1H46a1,1,0,0,0-1,1v1a1.0009,1.0009,0,0,1-1,1H43a1.0009,1.0009,0,0,1-1-1V39a1,1,0,0,0-1-1H38a1,1,0,0,0-1,1v1a1,1,0,0,1-2,0V39a1,1,0,0,0-1-1H31a1,1,0,0,0-1,1v4a1.0009,1.0009,0,0,1-1,1H28a1.0009,1.0009,0,0,1-1-1V39a1,1,0,0,0-1-1H23a1,1,0,0,0-1,1v2a1.0009,1.0009,0,0,1-1,1H20a1.0009,1.0009,0,0,1-1-1V39a1,1,0,0,0-1-1H15a1,1,0,0,0-1,1v3a1.0009,1.0009,0,0,1-1,1H11V37a1.0009,1.0009,0,0,1,1-1H52a1.0009,1.0009,0,0,1,1,1v7Z"/></g></svg>