<?xml version="1.0" ?><svg viewBox="0 0 64 64" xmlns="http://www.w3.org/2000/svg"><title/><g data-name="Outline putus" id="Outline_putus"><path d="M13.514,25.2849a.5937.5937,0,0,0,.1334.3532.97.97,0,0,0,.1063.16,1,1,0,0,0,.1613.1228.9393.9393,0,0,0,.13.0992c.0087.0043.0183.0023.0271.0062.0108.0049.0175.0146.0286.0192.2529.104,6.3125,2.5552,16.0288,2.5552,10.8349,0,15.6958-1.2193,15.8974-1.2715a1,1,0,0,0-.4975-1.937c-.0474.0122-4.8638,1.2085-15.4,1.2085a47.5648,47.5648,0,0,1-14.1412-2.0119,5.0891,5.0891,0,0,1,5.4659-2.22c4.834,1.2446,11.0137.0639,11.2739.0131a1,1,0,1,0-.3828-1.9629,29.7139,29.7139,0,0,1-9.7527.1553c-.106-1.11-.059-3.4366,1.9763-4.4848a10.0919,10.0919,0,0,1,2.16-.8.9951.9951,0,0,0,1.4513.8c.1909-.0987,4.27-2.2315,6.0307-5.6358,1.7671,1.18,5.3687,4.1445,4.5669,8.2764a1,1,0,1,0,1.9629.3808c1.3316-6.8574-6.22-10.8339-6.542-11a1.0007,1.0007,0,0,0-1.41.5816A9.7362,9.7362,0,0,1,29.25,13.0259a.9811.9811,0,0,0-.3241-.0655,12.6784,12.6784,0,0,0-5.273,1.3506,6.1655,6.1655,0,0,0-3.0868,5.9121c-3.67-.1992-6.1319,2.7042-6.984,4.461-.0049.01-.0036.0213-.0082.0316s-.0127.0154-.0167.025a.9472.9472,0,0,0-.0307.1588.9863.9863,0,0,0-.039.2015A.9589.9589,0,0,0,13.514,25.2849Z"/><path d="M53.47,31.68A8.7866,8.7866,0,0,0,54,28.84a7.3925,7.3925,0,0,0-4.8457-6.934c-.2949-2.9815-2.4131-5.127-6.04-6.0826a1,1,0,0,0-.51,1.9336c3.0425.8018,4.5849,2.4449,4.5849,4.8833a1,1,0,0,0,.75.9683C47.981,23.6191,52,24.7026,52,28.84a5.2011,5.2011,0,0,1-.9189,3.0249.9615.9615,0,0,0-.1358.2122c-15.4635,3.8994-32.5993.998-37.9121-.0886l-.2436-.1568c-.3448-.5463-1.46-2.5766-.21-4.2089a1,1,0,0,0-1.5879-1.2159c-2.3491,3.0669.1665,6.5943.2744,6.7427a.993.993,0,0,0,.2691.2534l.5757.3692a.9862.9862,0,0,0,.3369.1372c5.2339,1.0854,23.1533,4.1982,39.2939.0322-.6138,3.4565-2.11,11.752-2.9438,15.2168A3.8822,3.8822,0,0,1,46.88,52.17a43.9781,43.9781,0,0,0,1.1063-5.0054,1,1,0,1,0-1.9726-.3292,28.8729,28.8729,0,0,1-1.6118,6.2973C41.3067,53.8364,34.17,54,31.46,54c-2.8442,0-5.8522-.1328-8.4618-.3773C21.91,52.9211,21.1169,49.1638,21,45.9639a1,1,0,0,0-1.999.0722,22.2693,22.2693,0,0,0,1.4068,7.2852c-.2641-.0377-.5256-.076-.7722-.1166-1.2427-1.4165-2.276-7.0334-2.6414-10.3151a1,1,0,0,0-1.9874.2208A43.0529,43.0529,0,0,0,17.06,52.6047a2.7668,2.7668,0,0,1-1.0291-.5383c-1.2354-1.2847-2.2735-8.4243-2.96-13.1494-.1557-1.0737-.3057-2.1055-.4521-3.05a1,1,0,1,0-1.9766.3057c.1455.9389.2944,1.9648.45,3.0322,1.064,7.3193,1.938,12.6255,3.4971,14.247C16.9155,55.877,29.0508,56,31.46,56c.4467,0,10.977-.0132,14.3276-1.1753,3.4644-1.2012,4.3286-2.5757,4.9546-5.2007,1.0752-4.47,3.1548-16.3872,3.2432-16.8921A.9867.9867,0,0,0,53.47,31.68Z"/></g></svg>