<?xml version="1.0" ?><!DOCTYPE svg  PUBLIC '-//W3C//DTD SVG 1.1//EN'  'http://www.w3.org/Graphics/SVG/1.1/DTD/svg11.dtd'><svg enable-background="new 0 0 64 64" height="64px" id="Layer_1" version="1.1" viewBox="0 0 64 64" width="64px" xml:space="preserve" xmlns="http://www.w3.org/2000/svg" xmlns:xlink="http://www.w3.org/1999/xlink"><path d="M63.7,20.776l-1.197-1.466c-0.065-0.023-0.133-0.068-0.215-0.157c-0.985-1.1-6.534-2.4-8.363-7.791  c-1.764-5.195-4.505-7.884-4.703-8.073c-1.143-0.669-1.904,1.047-2.156,1.738l-0.09,0.269l-0.002,0.006l-2.904,8.587  c-1.393,4.099-4.021,2.68-4.021,2.68l0.005,0.008c-5.933-2.629-13.248-1.812-18.796,2.73c-5.343,4.375-7.617,11.043-6.52,17.189  c0.007,0.055,0.007,0.097,0.015,0.156c0.362,2.828-1.1,3.504-1.837,3.664l-0.398,0.05h-0.002L2.183,41.692l-0.001,0.002  l-0.677,0.085c-0.909,0.182-2.249,0.741-0.843,2.46l0.561,0.685c0.361,0.434,1.832,2.045,4.274,2.871  c2.835,0.958,2.226,5.066,5,8.454l3.296,4.026c0,0,1.722,1.84,2.934-0.99l4.046-9.473c0.322-0.608,1.297-1.79,3.806-0.886  c0.049,0.018,0.082,0.024,0.127,0.039c5.882,2.477,13.048,1.62,18.504-2.848c5.814-4.76,7.992-12.23,6.147-18.794l0.017,0.001  c0,0-1.011-1.952,3.535-2.901l9.594-1.996C63.404,22.169,64.432,21.667,63.7,20.776z M20.474,42.34  c-4.828-5.896-3.96-14.637,1.807-19.96c-1.245,4.652-2.712,15.655,7.322,24.942C26.118,46.884,22.829,45.216,20.474,42.34z   M42.85,42.307c0.146-3.755-1.107-12.921-7.678-23.835c3.243,0.557,6.271,2.194,8.479,4.892  C48.185,28.896,47.696,36.938,42.85,42.307z" fill="#241F20"/></svg>